# Aspose.3D Wavefront OBJ Exporter
# Copyright 2004-2024 Aspose Pty Ltd.
# File created: 03/18/2024 19:47:46

g obj_64066446

#
# object obj_64066446
#

v 1.5308084E-15 -25 0
v 1.5308084E-15 25 0
v 1.5308084E-15 -25 5
v 1.5308084E-15 25 5
v -2.0644836 24.914612 0
v -2.0644836 24.914612 5
v -4.114865 24.659033 0
v -4.114865 24.659033 5
v -6.1371374 24.235006 0
v -6.1371374 24.235006 5
v -8.117487 23.645432 0
v -8.117487 23.645432 5
v -10.042386 22.894333 0
v -10.042386 22.894333 5
v -11.8986845 21.986843 0
v -11.8986845 21.986843 5
v -13.673704 20.929161 0
v -13.673704 20.929161 5
v -15.355318 19.728512 0
v -15.355318 19.728512 5
v -16.93204 18.393097 0
v -16.93204 18.393097 5
v -18.393097 16.93204 0
v -18.393097 16.93204 5
v -19.728512 15.355318 0
v -19.728512 15.355318 5
v -20.929161 13.673704 0
v -20.929161 13.673704 5
v -21.986843 11.8986845 0
v -21.986843 11.8986845 5
v -22.894333 10.042386 0
v -22.894333 10.042386 5
v -23.645432 8.117487 0
v -23.645432 8.117487 5
v -24.235006 6.1371374 0
v -24.235006 6.1371374 5
v -24.659033 4.114865 0
v -24.659033 4.114865 5
v -24.914612 2.0644836 0
v -24.914612 2.0644836 5
v -25 3.0616169E-15 5
v -25 3.0616169E-15 0
v -24.914612 -2.0644836 5
v -24.914612 -2.0644836 0
v -24.659033 -4.114865 0
v -24.659033 -4.114865 5
v -24.235006 -6.1371374 0
v -24.235006 -6.1371374 5
v -23.645432 -8.117487 0
v -23.645432 -8.117487 5
v -22.894333 -10.042386 0
v -22.894333 -10.042386 5
v -21.986843 -11.8986845 0
v -21.986843 -11.8986845 5
v -20.929161 -13.673704 0
v -20.929161 -13.673704 5
v -19.728512 -15.355318 0
v -19.728512 -15.355318 5
v -18.393097 -16.93204 0
v -18.393097 -16.93204 5
v -16.93204 -18.393097 0
v -16.93204 -18.393097 5
v -15.355318 -19.728512 0
v -15.355318 -19.728512 5
v -13.673704 -20.929161 0
v -13.673704 -20.929161 5
v -11.8986845 -21.986843 0
v -11.8986845 -21.986843 5
v -10.042386 -22.894333 0
v -10.042386 -22.894333 5
v -8.117487 -23.645432 0
v -8.117487 -23.645432 5
v -6.1371374 -24.235006 0
v -6.1371374 -24.235006 5
v -4.114865 -24.659033 0
v -4.114865 -24.659033 5
v -2.0644836 -24.914612 0
v -2.0644836 -24.914612 5
# 78 vertices

vn 1 0 0
vn -0.041324973 0.99914575 0
vn -0.12369263 0.9923206 0
vn -0.20521533 0.97871685 0
vn -0.28533623 0.9584275 0
vn -0.36350796 0.9315911 0
vn -0.4391966 0.898391 0
vn -0.51188505 0.85905397 0
vn -0.5810768 0.81384873 0
vn -0.64629924 0.76308405 0
vn -0.70710677 0.70710677 0
vn -0.76308405 0.64629924 0
vn -0.81384873 0.5810768 0
vn -0.85905397 0.51188505 0
vn -0.898391 0.4391966 0
vn -0.9315911 0.36350796 0
vn -0.9584275 0.28533623 0
vn -0.97871685 0.20521533 0
vn -0.9923206 0.12369263 0
vn -0.99914575 0.041324973 0
vn -0.99914575 -0.041324973 0
vn -0.9923206 -0.12369263 0
vn -0.97871685 -0.20521533 0
vn -0.9584275 -0.28533623 0
vn -0.9315911 -0.36350796 0
vn -0.898391 -0.4391966 0
vn -0.85905397 -0.51188505 0
vn -0.81384873 -0.5810768 0
vn -0.76308405 -0.64629924 0
vn -0.70710677 -0.70710677 0
vn -0.64629924 -0.76308405 0
vn -0.5810768 -0.81384873 0
vn -0.51188505 -0.85905397 0
vn -0.4391966 -0.898391 0
vn -0.36350796 -0.9315911 0
vn -0.28533623 -0.9584275 0
vn -0.20521533 -0.97871685 0
vn -0.12369263 -0.9923206 0
vn -0.041324973 -0.99914575 0
vn 0 0 1
vn 0 0 -1
# 41 vertex normals

s 1
f 1//1 2//1 3//1
f 3//1 2//1 4//1
f 2//2 5//2 4//2
f 4//2 5//2 6//2
f 6//3 5//3 7//3
f 6//3 7//3 8//3
f 8//4 7//4 9//4
f 8//4 9//4 10//4
f 10//5 9//5 11//5
f 10//5 11//5 12//5
f 12//6 11//6 13//6
f 12//6 13//6 14//6
f 14//7 13//7 15//7
f 14//7 15//7 16//7
f 16//8 15//8 17//8
f 16//8 17//8 18//8
f 18//9 17//9 19//9
f 18//9 19//9 20//9
f 20//10 19//10 21//10
f 20//10 21//10 22//10
f 22//11 21//11 23//11
f 22//11 23//11 24//11
f 24//12 23//12 25//12
f 24//12 25//12 26//12
f 26//13 25//13 27//13
f 26//13 27//13 28//13
f 28//14 27//14 29//14
f 28//14 29//14 30//14
f 30//15 29//15 31//15
f 30//15 31//15 32//15
f 32//16 31//16 33//16
f 32//16 33//16 34//16
f 34//17 33//17 35//17
f 34//17 35//17 36//17
f 36//18 35//18 37//18
f 36//18 37//18 38//18
f 38//19 37//19 39//19
f 38//19 39//19 40//19
f 40//20 39//20 41//20
f 41//20 39//20 42//20
f 41//21 42//21 43//21
f 43//21 42//21 44//21
f 43//22 44//22 45//22
f 43//22 45//22 46//22
f 46//23 45//23 47//23
f 46//23 47//23 48//23
f 48//24 47//24 49//24
f 48//24 49//24 50//24
f 50//25 49//25 51//25
f 50//25 51//25 52//25
f 52//26 51//26 53//26
f 52//26 53//26 54//26
f 54//27 53//27 55//27
f 54//27 55//27 56//27
f 56//28 55//28 57//28
f 56//28 57//28 58//28
f 58//29 57//29 59//29
f 58//29 59//29 60//29
f 60//30 59//30 61//30
f 60//30 61//30 62//30
f 62//31 61//31 63//31
f 62//31 63//31 64//31
f 64//32 63//32 65//32
f 64//32 65//32 66//32
f 66//33 65//33 67//33
f 66//33 67//33 68//33
f 68//34 67//34 69//34
f 68//34 69//34 70//34
f 70//35 69//35 71//35
f 70//35 71//35 72//35
f 72//36 71//36 73//36
f 72//36 73//36 74//36
f 74//37 73//37 75//37
f 74//37 75//37 76//37
f 76//38 75//38 77//38
f 76//38 77//38 78//38
f 78//39 77//39 1//39
f 78//39 1//39 3//39
f 4//40 6//40 3//40
f 3//40 6//40 76//40
f 3//40 76//40 78//40
f 6//40 8//40 76//40
f 76//40 8//40 74//40
f 74//40 8//40 10//40
f 74//40 10//40 72//40
f 72//40 10//40 12//40
f 72//40 12//40 70//40
f 70//40 12//40 14//40
f 70//40 14//40 68//40
f 68//40 14//40 16//40
f 68//40 16//40 66//40
f 66//40 16//40 18//40
f 66//40 18//40 64//40
f 64//40 18//40 20//40
f 64//40 20//40 62//40
f 62//40 20//40 22//40
f 62//40 22//40 60//40
f 60//40 22//40 24//40
f 60//40 24//40 58//40
f 58//40 24//40 26//40
f 58//40 26//40 56//40
f 56//40 26//40 28//40
f 56//40 28//40 54//40
f 54//40 28//40 30//40
f 54//40 30//40 52//40
f 52//40 30//40 32//40
f 52//40 32//40 50//40
f 50//40 32//40 34//40
f 50//40 34//40 48//40
f 48//40 34//40 36//40
f 48//40 36//40 46//40
f 46//40 36//40 38//40
f 46//40 38//40 43//40
f 43//40 38//40 40//40
f 43//40 40//40 41//40
f 77//41 75//41 1//41
f 1//41 75//41 7//41
f 1//41 7//41 5//41
f 75//41 73//41 7//41
f 7//41 73//41 9//41
f 9//41 73//41 71//41
f 9//41 71//41 11//41
f 11//41 71//41 69//41
f 11//41 69//41 13//41
f 13//41 69//41 67//41
f 13//41 67//41 15//41
f 15//41 67//41 65//41
f 15//41 65//41 17//41
f 17//41 65//41 63//41
f 17//41 63//41 19//41
f 19//41 63//41 61//41
f 19//41 61//41 21//41
f 21//41 61//41 59//41
f 21//41 59//41 23//41
f 23//41 59//41 57//41
f 23//41 57//41 25//41
f 25//41 57//41 55//41
f 25//41 55//41 27//41
f 27//41 55//41 53//41
f 27//41 53//41 29//41
f 29//41 53//41 51//41
f 29//41 51//41 31//41
f 31//41 51//41 49//41
f 31//41 49//41 33//41
f 33//41 49//41 47//41
f 33//41 47//41 35//41
f 35//41 47//41 45//41
f 35//41 45//41 37//41
f 37//41 45//41 44//41
f 37//41 44//41 39//41
f 39//41 44//41 42//41
f 5//41 2//41 1//41
#152 polygons

